<?xml version="1.0" encoding="utf-8"?>
<!-- Generator: Adobe Illustrator 25.0.0, SVG Export Plug-In . SVG Version: 6.00 Build 0)  -->
<svg version="1.1" id="Слой_1" xmlns="http://www.w3.org/2000/svg" xmlns:xlink="http://www.w3.org/1999/xlink" x="0px" y="0px"
	 viewBox="0 0 1000 1000" style="enable-background:new 0 0 1000 1000;" xml:space="preserve">
<g>
	<path d="M0,499.9c0-24.7,0.7-45,0.9-47c3.9-36.9,11.2-73.1,22.8-108.5C122.3,43.7,471-91,746.4,65.5
		c204.7,116.3,303.2,363.6,228.2,585.6c-65.3,193.2-201.9,307.1-402.9,343.2c-11.9,2.1-31.4,5.8-72.5,5.7c-26,0,26,0,0,0
		c-27.2,0.6-45.9-2.1-48.2-2.4c-84.2-8.8-162.2-35.6-231.9-83.7C115.8,842.6,45.3,724.3,12.8,600.8C4.1,567.9,0,533.9,0,499.9
		L0,499.9z M424.8,673.2c0,40.7,0,81.3,0,122c0,13.8,3.3,17,17.3,17c26.7,0,53.4,0,80,0c14.4,0,17.6-3.2,17.6-17.7
		c0.1-80.7,0.3-161.4,0.1-242.1c0-7.9,1.5-10.5,9.9-10.3c26,0.6,52.1,0.3,78.1,0.2c12-0.1,18.1-5.1,19.4-16.1
		c3.3-27.1,6.6-54.2,9.5-81.4c1.8-16.3-4.5-22.9-20.9-22.9c-29.6,0-59.2-0.1-88.8,0.1c-4.8,0-7.6-0.1-7.5-6.5
		c0.5-25.4-0.2-50.8,0.5-76.1c0.8-28.1,15.7-43.3,43.6-44.8c17.2-1,34.5-0.4,51.7-0.9c12.2-0.3,18-6.1,18.1-18.1
		c0.2-23.4,0.2-46.9,0-70.3c-0.1-12.1-6.1-18-18-18.1c-25.7-0.1-51.4-0.6-77.1,0.2c-73.6,2.3-125.7,52.2-132,125.5
		c-2.9,33.1-1.1,66.3-1.4,99.5c-0.1,7.2-1.2,10-9.3,9.7c-18.5-0.7-37.1-0.3-55.6-0.2c-13.8,0.1-19.6,5.9-19.6,19.6c0,27,0,54,0.2,81
		c0.1,13.6,6,19.6,19.7,19.7c18.5,0.1,37.1,0.4,55.6-0.2c7.3-0.2,9.1,1.7,9,9C424.6,591.9,424.8,632.5,424.8,673.2z"/>
</g>
</svg>
