<?xml version="1.0" encoding="utf-8"?>
<!-- Generator: Adobe Illustrator 25.0.0, SVG Export Plug-In . SVG Version: 6.00 Build 0)  -->
<svg version="1.1" id="Слой_1" xmlns="http://www.w3.org/2000/svg" xmlns:xlink="http://www.w3.org/1999/xlink" x="0px" y="0px"
	 viewBox="0 0 1000 1000" style="enable-background:new 0 0 1000 1000;" xml:space="preserve">
<style type="text/css">
	.st0{fill:#010101;}
</style>
<g>
	<path class="st0" d="M485,0.2C511.1,0.2,459,0.2,485,0.2C520.2,0,539.4,1.9,541,2c19.2,1.2,38.1,4.1,56.9,7.8
		c206,40.5,365.8,208.8,396.6,417.3c1.7,11.3,5.5,22.3,5.3,60.6c0,26.7,0-26.7,0,0c0.2,63.2-3.1,70.8-4.3,79.5
		c-14.2,99.4-53.6,187.4-120.3,262.6c-80.5,90.9-181.1,145.9-301.3,164.6c-12.3,1.9-37.9,5.5-73.9,5.5c-26,0,26,0,0,0
		c-28.4,0.2-44.8-1.8-46.8-2.1c-23.6-2.5-47-6.1-70.1-11.7C184.3,937.7,35.9,775.2,5.5,572.9c-1.6-10.7-5.3-36.8-5.3-72.9
		c0-27.3,0,27.3,0,0c0-22.1,1.8-44.8,2-46.8c2.4-22.3,5.7-44.5,10.9-66.3c48.5-202,209-349.8,414-381.4C437.8,3.9,452.3,0.2,485,0.2
		z M500,213c-41.3,0.2-82.6-0.5-123.9,2c-32.9,2-64.4,8.9-92.2,27.6c-46.6,31.2-66,77.4-68.6,131.3c-4,83.9-3.7,167.8-0.1,251.7
		c1.4,32.2,9,63.1,27.2,90.3c30.9,46.3,76.7,66,130.2,68.7c84.8,4.2,169.8,3.8,254.7,0.1c28.1-1.2,55.4-7.6,80.1-22
		c52.9-30.8,74.7-79.6,77.4-138.1c3.8-82.9,3.6-165.9,0.1-248.8c-1.5-36-10.3-70-32.6-99.3C720,234.1,675,218.1,623.9,215
		C582.6,212.5,541.3,213.2,500,213z"/>
	<path class="st0" d="M500.1,734.9c-43.5-0.8-87.1,1.1-130.6-2.4c-59.7-4.8-98.2-42.1-101.6-101.8c-5-87.1-4.9-174.2,0-261.3
		c3.4-59.8,41.8-98.3,101.5-101.6c87-4.9,174.2-4.9,261.3,0c59.9,3.4,98.3,41.7,101.7,101.4c4.9,87.1,4.9,174.2,0,261.3
		c-3.4,59.7-42,97.2-101.5,102c-21.8,1.8-43.5,2-65.3,2.3C543.6,735.2,521.8,734.9,500.1,734.9z M500.3,647.3
		c81.6-0.2,147.5-66.4,147-147.8c-0.4-81.4-65.8-146.6-147.1-146.8c-81.5-0.2-147.5,65.7-147.5,147.3
		C352.7,581.5,418.8,647.5,500.3,647.3z M687.5,346.9c0-18.9-15-34.2-33.7-34.4c-19.4-0.2-34.8,14.9-34.9,34.2
		c0,19,14.8,34.2,33.7,34.4C672,381.3,687.5,366.2,687.5,346.9z"/>
	<path class="st0" d="M499.7,404.4c52.7-0.1,95.7,42.5,95.9,95.1c0.2,53-42.8,96.3-95.8,96.2c-52.5-0.1-95.4-43-95.4-95.6
		C404.3,447.4,447.2,404.5,499.7,404.4z"/>
</g>
</svg>
