<?xml version="1.0" encoding="utf-8"?>
<!-- Generator: Adobe Illustrator 25.0.0, SVG Export Plug-In . SVG Version: 6.00 Build 0)  -->
<svg version="1.1" id="Слой_1" xmlns="http://www.w3.org/2000/svg" xmlns:xlink="http://www.w3.org/1999/xlink" x="0px" y="0px"
	 viewBox="0 0 1000 1000" style="enable-background:new 0 0 1000 1000;" xml:space="preserve">
<style type="text/css">
	.st0{fill:#2B5DA4;}
</style>
<g>
	<path class="st0" d="M1000,520.6c0.3,9.5-2.3,30.7-3.5,40.1c-1.7,13.4-3.7,26.7-6.6,39.9c-53.2,246.8-275.5,414.3-526.3,396
		c-114.1-8.3-214.8-50.5-297.9-128.7C28,738.4-24,578.8,13.5,393.1C53.2,197.1,216.2,42,411.7,7.6c9.3-1.6,51.9-5.5,61.4-5.8l57,0.1
		c9.7-0.3,19.4,0,29.1,1.2c9.4,1.1,18.7,2.5,28.1,4.1c205.3,35.2,368.9,199.3,405.2,403.9c1.6,9.1,6.3,61.4,6.5,70.6L1000,520.6z
		 M501.6,272.1c-84.8,0-169.7,0-254.5,0c-42.2,0-67.9,25.8-67.9,68c0,106,0,211.9,0,317.9c0,42,25.9,67.9,68.1,67.9
		c169,0,338,0,507,0c42.8,0,68.4-25.7,68.4-68.5c0-105.6-0.6-211.3,0.3-316.9c0.3-37.2-26.6-69.3-68.9-68.7
		C670,273,585.8,272.1,501.6,272.1z"/>
	<path class="st0" d="M232.7,351.2c50.8,40.3,101.1,80.3,151.4,120.2c32.5,25.8,65.1,51.7,97.6,77.5c13.9,11,24.6,11.1,38.6,0.1
		c81.4-64.6,162.7-129.2,244.1-193.8c1.5-1.2,3-2.3,4.6-3.5c3.6,2,2.1,5.3,2.1,7.9C771,459,771,558.4,771,657.9
		c0,13.5-3.2,16.6-16.6,16.6c-168.9,0-337.9,0-506.8,0c-13.5,0-16.6-3.1-16.6-16.6c0-99.4,0-198.8,0-298.3
		C230.9,357.1,230.2,354.5,232.7,351.2z"/>
	<path class="st0" d="M281.8,323.8c146.8,0,291.6,0,438.3,0c-3.1,2.7-5.1,4.6-7.2,6.3c-68.4,54.3-136.8,108.6-205.1,163
		c-4.8,3.8-7.8,4.6-13,0.4C425.5,438.2,356,383.2,286.6,328.1C285.4,327.1,284.3,326,281.8,323.8z"/>
</g>
</svg>
