<?xml version="1.0" encoding="utf-8"?>
<!-- Generator: Adobe Illustrator 25.0.0, SVG Export Plug-In . SVG Version: 6.00 Build 0)  -->
<svg version="1.1" id="Слой_1" xmlns="http://www.w3.org/2000/svg" xmlns:xlink="http://www.w3.org/1999/xlink" x="0px" y="0px"
	 viewBox="0 0 1000 1000" style="enable-background:new 0 0 1000 1000;" xml:space="preserve">
<style type="text/css">
	.st0{fill:#FCA640;}
</style>
<g>
	<path class="st0" d="M22.4,744V349.5c128.5,66.5,242,156.1,363.1,234.2c102.3,66,134.6,67.1,237.3-1.2
		C740.1,504.5,857.4,426.2,984,341.9c0,139.5,0.3,266.2-0.1,393c-0.3,97.9-27,125.2-123.2,125.4c-239.9,0.3-479.8-1.3-719.6,1.2
		c-0.5,0-1.1,0-1.6,0C74.8,861.7,22.4,808.8,22.4,744z"/>
	<path class="st0" d="M22.4,199.1C51,150.9,93.6,138,148.5,138.5c237.3,2.3,474.6,1.7,711.9,0.4c54-0.3,102.2,7,119.6,65.9
		c16.8,57-22.2,86.6-63.5,114c-110.2,73.1-221.3,144.8-329,221.4c-59.9,42.7-110,41-169.5-1.5c-109.6-78.3-223.7-150.2-335.1-226
		c-22.1-15-40.4-35.5-60.5-53.5C22.4,239.2,22.4,219.2,22.4,199.1z"/>
</g>
<path class="st0" d="M977.5,199.1c-28.6-48.3-71.2-61.1-126.1-60.6c-237.3,2.3-474.6,1.7-711.9,0.4c-54-0.3-102.2,7-119.6,65.9
	c-16.8,57,22.2,86.6,63.5,114c110.2,73.1,221.3,144.8,329,221.4c59.9,42.7,110,41,169.5-1.5c109.6-78.3,223.7-150.2,335.1-226
	c22.1-15,40.4-35.5,60.5-53.5C977.5,239.2,977.5,219.2,977.5,199.1z"/>
</svg>
