<?xml version="1.0" encoding="utf-8"?>
<!-- Generator: Adobe Illustrator 25.0.0, SVG Export Plug-In . SVG Version: 6.00 Build 0)  -->
<svg version="1.1" id="Слой_1" xmlns="http://www.w3.org/2000/svg" xmlns:xlink="http://www.w3.org/1999/xlink" x="0px" y="0px"
	 viewBox="0 0 1000 1000" style="enable-background:new 0 0 1000 1000;" xml:space="preserve">
<style type="text/css">
	.st0{fill:#FCA640;}
</style>
<g>
	<path class="st0" d="M273.5,29.6c41.8,39.7,83.9,79.1,122.9,121.5c47.7,52,37.5,124.8-23.2,160.7c-69.2,40.9-76.4,91.8-42.7,157.7
		c46.7,91.3,115.3,158.7,208.5,201.9c59.9,27.7,102.5,14.7,138.5-41.4c53-82.6,105.6-88.1,175.9-18.6c46.8,46.2,98.7,88.3,134,144.9
		c8.3,13.4,12.7,28.9,12.7,44.7v1.5c0,22.9-9.6,44.5-25.7,60.8c-0.9,0.9-1.7,1.8-2.5,2.7c-141.3,155.7-206.3,170-392.1,72.9
		C359.9,823.9,191,653.1,71.3,436.5c-107.5-194.4-97.1-269,56.3-408.6c15.5-14.2,34.9-23.4,55.6-26.6l0,0
		C216-3.8,249.3,6.6,273.5,29.6z"/>
</g>
</svg>
