<?xml version="1.0" encoding="utf-8"?>
<!-- Generator: Adobe Illustrator 25.0.0, SVG Export Plug-In . SVG Version: 6.00 Build 0)  -->
<svg version="1.1" id="Слой_1" xmlns="http://www.w3.org/2000/svg" xmlns:xlink="http://www.w3.org/1999/xlink" x="0px" y="0px"
	 viewBox="0 0 1000 1000" style="enable-background:new 0 0 1000 1000;" xml:space="preserve">
<style type="text/css">
	.st0{fill:#2B5DA4;}
</style>
<g>
	<path class="st0" d="M1000.2,460.8c0,26.7,0,53.4,0,80.1c-3.4,1.4-1.9,4.5-2.2,6.7c-3.8,35.3-9.7,70.3-21.5,103.8
		c-68.1,192.3-202.4,307-403.5,343.1c-11.9,2.1-24.3,1.2-35.8,5.4c-26,0-52.1,0-78.1,0c-1-3.1-3.8-1.9-5.8-2.1
		c-43.8-4.5-86.6-13.8-127.8-29.5C86.6,877.6-46,627.3,14.2,381C76.7,125.5,326-37.3,586.6,7.3C797.7,43.5,963.5,214,994.9,426.9
		C996.6,438.2,995.9,449.9,1000.2,460.8z M427.1,715.5c7,0.3,13.4-3.8,19.3-9.3c21.5-20.4,43.2-40.5,64.4-61.2
		c5.9-5.8,9.8-6.4,16.8-1.5c45.2,31.2,90.7,62,136.2,92.7c22.4,15.1,45.6,6,51.5-20c32-141.3,64-282.5,95.9-423.8
		c4.3-19.2-7-34.6-26.4-35.9c-6.3-0.4-12.2,1.7-18,3.7c-187.3,67.5-374.7,135-562,202.6c-12.1,4.4-17.3,10.3-17.1,19.7
		c0.2,9.7,6.2,15.9,18.7,19.3c39.5,10.7,78.7,22.5,118.5,31.8c17.7,4.1,26,12.4,31.3,29.6c13.5,44.3,29.4,88,44.4,131.9
		C405.2,708.7,413.5,715.3,427.1,715.5z"/>
	<path class="st0" d="M372.7,536.9c-0.4-8.9,4.4-12.1,9.6-15.1c60.6-34.7,121.2-69.4,181.8-104.1c40.9-23.4,81.7-46.8,122.6-70.2
		c1.4-0.8,2.8-1.6,4.2-2.4c4-2.3,8.1-3.2,11.2,1.2c3.1,4.5-0.5,7.2-3.5,9.7c-10.3,8.5-20.6,16.9-31,25.3
		c-76.1,62.2-152.1,124.4-228.3,186.5c-6,4.9-8.9,10.4-9.7,18.1c-2.5,24.3-5.5,48.5-8.5,72.7c-0.3,2.5,0.9,6.8-3,7.3
		c-4.1,0.6-3.7-3.7-4.6-6.2c-13.1-39-26.2-78.1-39.3-117.2C373.4,540.1,372.9,537.6,372.7,536.9z"/>
</g>
</svg>
