<?xml version="1.0" encoding="utf-8"?>
<!-- Generator: Adobe Illustrator 25.0.0, SVG Export Plug-In . SVG Version: 6.00 Build 0)  -->
<svg version="1.1" id="Слой_1" xmlns="http://www.w3.org/2000/svg" xmlns:xlink="http://www.w3.org/1999/xlink" x="0px" y="0px"
	 viewBox="0 0 1000 1000" style="enable-background:new 0 0 1000 1000;" xml:space="preserve">
<style type="text/css">
	.st0{fill:#FCA640;}
</style>
<g>
	<path class="st0" d="M504.5,0.2c46.8,0,88.2,7.9,114.1,14.4c259.2,64.7,420.7,318.7,369.7,581.1C944.6,820.2,750,988,521.5,997.4
		c-109.6,4.5-210.9-23.1-301.4-85.2C100,829.8,28.8,715.8,5.6,571.9C3.8,560.6,0,528.1,0,500c0-26.6,0,25.6,0-1
		c0-24.2,2-44.7,2.2-46.7c2.6-24.5,6.4-48.9,12.5-72.8C64.8,181.1,224.5,36.4,427.2,5.4c10.3-1.6,30.9-5.4,56.9-5.2 M352.1,646.8
		c-29,19.2-58.2,30.8-89.6,37.3c-20.5,4.2-41.2,4.8-62,4.6c-6.1-0.1-11.1,2-12.6,8.4c-1.3,6,2.3,9.7,7.2,12.4
		c1.4,0.8,2.8,1.6,4.3,2.3c73,40,150.7,53.8,233,42.7c83.7-11.3,155.4-46.5,212.8-108.7c65.7-71.3,99.7-156,102.1-253
		c0.3-12.1,4.5-20.8,13.8-28.4c18.3-14.8,33.5-32.5,46.8-51.9c2.3-3.3,4.4-6.7,1.1-10.5c-3.2-3.8-6.9-2.6-10.7-1.2
		c-6,2.3-11.9,5.1-18.1,6.9c-5.8,1.7-11.5,5.1-19.7,4c13.9-14.5,23.9-29.9,30.4-47.4c1.6-4.4,4.9-9.3,0.2-13.5
		c-4.7-4.2-9-0.5-13.2,1.9c-17.1,9.4-35,16.7-53.6,22.4c-10.4,3.2-18.2,1.3-26.9-5.4c-42.9-33.4-90.2-39.4-140-18.5
		c-52.4,22-83.1,75-78.6,132.2c0.8,10.7-0.1,11.6-11.2,10.5c-35.1-3.4-68.8-12.4-101.2-26.3c-51.9-22.3-95.9-55.2-132.1-98.5
		c-7.6-9-11.3-8.5-16.9,2.1c-14.3,27.1-18.5,55.7-13.5,85.8c4.6,27.3,17.2,50.6,36.7,71.8c-10.5-1.8-18.6-5.7-26.7-9.6
		c-9.3-4.5-13.3-2-13.1,8.5c0.5,32.7,11.8,61.4,33.1,86.2c11.6,13.6,25.8,24,43.1,33.1c-8,0.9-14,0.1-20-0.9
		c-10.1-1.7-13.4,2.4-10.1,12.1c8,23.2,21.7,42.6,40.5,58.4C305.6,632.2,326.6,641.6,352.1,646.8z"/>
</g>
</svg>
