<?xml version="1.0" encoding="utf-8"?>
<!-- Generator: Adobe Illustrator 25.0.0, SVG Export Plug-In . SVG Version: 6.00 Build 0)  -->
<svg version="1.1" id="Слой_1" xmlns="http://www.w3.org/2000/svg" xmlns:xlink="http://www.w3.org/1999/xlink" x="0px" y="0px"
	 viewBox="0 0 1000 1000" style="enable-background:new 0 0 1000 1000;" xml:space="preserve">
<style type="text/css">
	.st0{fill:#FCA640;}
</style>
<g>
	<path class="st0" d="M488.5,1000c-102.8,0-197.7-37.7-267.3-85.5C100.6,831.6,0,655.1,0,505.6l0,0c0-94.8,8.7-101.4,14.7-125.4
		C65.1,181.2,305.6,0,500.1,0l0,0c40.4,0,71.3,5.1,86.4,7.7c179.1,30.7,325.4,157.9,384.8,325.9c15.1,42.7,28.8,87.8,28.7,175.1l0,0
		c1.3,49-8.7,97.8-23.9,144.4c-4.4,13.6-9.6,27.1-15.5,40.3C885,862,669.4,1000,488.5,1000 M500,187.7c-37.5-0.2-74.6,3.9-111.8,7.8
		c-46.6,4.8-87.1,22-121.1,54.4c-32.2,30.7-54.4,66.4-60.4,111.6c-3.6,27.1-7.3,54.1-8.3,81.4c-1.8,49,0.6,98.1,14.2,145.1
		c18.3,63,62.9,103.9,122.6,128.6c7.5,3.1,9.6,6.3,9.3,13.8c-0.6,16.9,0,33.8-0.2,50.7c-0.2,13.2,4.1,23.9,16.9,29.1
		c12.9,5.3,23.2,0.1,32.2-9.4c19.2-20.3,38.8-40.3,58.1-60.5c3-3.1,5.6-5.7,10.7-5.4c49.2,3.4,98-0.8,146.9-6.2
		c47.4-5.2,89.4-21.3,124-54.9c26.2-25.5,48-53.8,56.1-90.6c14.6-66.8,16-133.9,7.8-201.7c-5.7-46.6-20.6-88.2-54.2-122.1
		c-26.8-27-56.5-49.6-94.3-57.5C599.5,191.8,549.9,187.6,500,187.7z"/>
	<path class="st0" d="M366.5,727.8c0-16.6-0.2-33.2,0.1-49.8c0.1-5.8-2-8.1-7.5-10.3c-51.6-20.7-88.5-54.9-98.8-112
		c-12.1-67.6-11.4-135.2,3.1-202.5c2.2-10.3,6.1-19.9,11.9-28.6c22.1-33.5,49.7-61.1,90-70c48.7-10.8,98.4-13.5,148.3-12.7
		c37.8,0.6,75.3,4.4,112.5,10.7c41.5,7.1,70.2,33,94.4,65.4c13.8,18.4,17.8,40.1,21.2,61.9c9.8,64,8.4,127.6-5.2,191
		c-2.8,13-8.5,24.6-16.3,35c-22,30-48.4,55.4-85.9,63.3c-46.5,9.8-93.9,13.6-141.6,12.3c-10.4-0.3-17.3,2.9-24.4,10.3
		c-28.7,30.2-58,59.8-87,89.6c-3.1,3.2-5.9,7.9-11.3,5.5c-5-2.2-3.4-7.3-3.4-11.3C366.5,759.7,366.5,743.8,366.5,727.8z M343,378.3
		c0.3,3.3,0.9,7.1,2.2,10.8c39.4,109.6,113,185.9,221.4,229.1c18.5,7.4,33,4.8,47.4-7.2c9.4-7.8,16.9-17.1,22.3-28
		c6.3-12.7,4.5-20.9-6.6-29.9c-14.6-11.9-30.1-22.7-45.8-33c-16.8-11-27.9-9.1-40.2,6.7c-12.4,15.9-18.6,17.1-37.6,9.2
		c-39.7-16.7-64.5-46.8-79.2-86.3c-3.5-9.3-1.6-17.2,6.2-23.5c3-2.5,6.1-4.8,9.1-7.3c11.2-9.4,13.7-21.2,6.6-33.9
		c-10.8-19-23.4-36.7-37.9-53c-7.4-8.3-15.4-9.8-25.4-4.9c-11.8,5.7-22.2,13.4-30.5,23.7C348.4,358.6,343.3,367.1,343,378.3z
		 M500.6,306.8c1.3,0,0,0.1-1.2,0c-6.2-0.4-11.6,1.5-12.1,8.3c-0.6,7.4,5.6,8.5,11.3,9.2c5.8,0.7,11.6,1.2,17.4,1.8
		c55,5.3,102.6,48.6,112.9,102.8c2.3,12.1,3.2,24.4,4,36.7c0.4,6.1,1.8,12.4,9.8,11.6c7.2-0.7,8.1-6.3,7.5-12.4
		c-0.7-7.4-1.3-14.9-2-22.3C641.2,367.3,578.6,308.8,500.6,306.8z M611.3,447.1c-1.7-26.3-9.3-50-27.9-69.2
		c-19.7-20.3-44.4-29.7-72.2-32c-5.6-0.5-10,1.3-10.8,7.2c-0.8,6.6,3.5,9.2,9.4,10c1.6,0.2,3.2,0.2,4.9,0.4
		c43.3,5,71.8,31.5,78.3,72.8c0.9,5.7,0.5,11.7,1.2,17.5c0.6,4.7,3.3,7.9,8.4,7.8c5-0.1,7.6-3.3,8.3-8
		C611.3,451.4,611.2,449.1,611.3,447.1z M572.4,438.2c-0.5-29.5-21.5-51-49.9-51.6c-5.6-0.1-9.9,1.4-10.7,7.3
		c-0.8,6.1,3.4,8.6,8.7,9.6c1.9,0.4,3.9,0.6,5.8,0.8c12.9,1.3,21.6,8.3,26.2,20.2c1.9,4.8,2.3,10.1,3.2,15.2c1,5.7,3.5,10.2,10,9.5
		S572.8,443.4,572.4,438.2z"/>
</g>
</svg>
