<?xml version="1.0" encoding="utf-8"?>
<!-- Generator: Adobe Illustrator 25.0.0, SVG Export Plug-In . SVG Version: 6.00 Build 0)  -->
<svg version="1.1" id="Слой_1" xmlns="http://www.w3.org/2000/svg" xmlns:xlink="http://www.w3.org/1999/xlink" x="0px" y="0px"
	 viewBox="0 0 1000 1000" style="enable-background:new 0 0 1000 1000;" xml:space="preserve">
<style type="text/css">
	.st0{fill:#2B5DA4;}
	.st1{fill:none;stroke:#2B5DA4;stroke-width:35;stroke-miterlimit:10;}
</style>
<g>
	<path class="st0" d="M488,990c-100.8,0-193.9-37-262.1-83.8C107.6,824.9,9,651.8,9,505.2l0,0c0-93,8.5-99.4,14.4-123
		C72.8,187.1,308.6,9.5,499.4,9.5l0,0c39.6,0,69.9,5,84.7,7.6c175.6,30.1,319.1,154.8,377.3,319.6c14.8,41.9,28.2,86.1,28.1,171.7
		l0,0c1.3,48-8.5,95.9-23.4,141.6c-4.3,13.3-9.4,26.6-15.2,39.5C876.8,854.7,665.4,990,488,990 M499.3,193.5
		c-36.8-0.2-73.1,3.8-109.6,7.6c-45.7,4.7-85.4,21.6-118.7,53.3c-31.6,30.1-53.3,65.1-59.2,109.4c-3.5,26.6-7.2,53-8.1,79.8
		c-1.8,48,0.6,96.2,13.9,142.3c17.9,61.8,61.7,101.9,120.2,126.1c7.4,3,9.4,6.2,9.1,13.5c-0.6,16.6,0,33.1-0.2,49.7
		c-0.2,12.9,4,23.4,16.6,28.5c12.6,5.2,22.7,0.1,31.6-9.2c18.8-19.9,38-39.5,57-59.3c2.9-3,5.5-5.6,10.5-5.3
		c48.2,3.3,96.1-0.8,144-6.1c46.5-5.1,87.7-20.9,121.6-53.8c25.7-25,47.1-52.8,55-88.8c14.3-65.5,15.7-131.3,7.6-197.8
		c-5.6-45.7-20.2-86.5-53.1-119.7c-26.3-26.5-55.4-48.6-92.5-56.4C596.8,197.5,548.2,193.4,499.3,193.5z"/>
	<path class="st0" d="M368.4,723.1c0-16.3-0.2-32.6,0.1-48.8c0.1-5.7-2-7.9-7.4-10.1c-50.6-20.3-86.8-53.8-96.9-109.8
		c-11.9-66.3-11.2-132.6,3-198.6c2.2-10.1,6-19.5,11.7-28c21.7-32.8,48.7-59.9,88.2-68.6c47.8-10.6,96.5-13.2,145.4-12.5
		c37.1,0.6,73.8,4.3,110.3,10.5c40.7,7,68.8,32.4,92.6,64.1c13.5,18,17.5,39.3,20.8,60.7c9.6,62.8,8.2,125.1-5.1,187.3
		c-2.7,12.7-8.3,24.1-16,34.3c-21.6,29.4-47.5,54.3-84.2,62.1c-45.6,9.6-92.1,13.3-138.8,12.1c-10.2-0.3-17,2.8-23.9,10.1
		c-28.1,29.6-56.9,58.6-85.3,87.9c-3,3.1-5.8,7.7-11.1,5.4c-4.9-2.2-3.3-7.2-3.3-11.1C368.4,754.4,368.4,738.8,368.4,723.1z
		 M345.3,380.4c0.3,3.2,0.9,7,2.2,10.6c38.6,107.5,110.8,182.3,217.1,224.6c18.1,7.3,32.4,4.7,46.5-7.1c9.2-7.6,16.6-16.8,21.9-27.5
		c6.2-12.5,4.4-20.5-6.5-29.3c-14.3-11.7-29.5-22.3-44.9-32.4c-16.5-10.8-27.4-8.9-39.4,6.6c-12.2,15.6-18.2,16.8-36.9,9
		c-38.9-16.4-63.2-45.9-77.7-84.6c-3.4-9.1-1.6-16.9,6.1-23c2.9-2.5,6-4.7,8.9-7.2c11-9.2,13.4-20.8,6.5-33.2
		c-10.6-18.6-22.9-36-37.2-52c-7.3-8.1-15.1-9.6-24.9-4.8c-11.6,5.6-21.8,13.1-29.9,23.2C350.6,361.1,345.6,369.4,345.3,380.4z
		 M499.9,310.3c1.3,0,0,0.1-1.2,0c-6.1-0.4-11.4,1.5-11.9,8.1c-0.6,7.3,5.5,8.3,11.1,9c5.7,0.7,11.4,1.2,17.1,1.8
		c53.9,5.2,100.6,47.7,110.7,100.8c2.3,11.9,3.1,23.9,3.9,36c0.4,6,1.8,12.2,9.6,11.4c7.1-0.7,7.9-6.2,7.4-12.2
		c-0.7-7.3-1.3-14.6-2-21.9C637.7,369.6,576.3,312.3,499.9,310.3z M608.4,447.9c-1.7-25.8-9.1-49-27.4-67.9
		c-19.3-19.9-43.5-29.1-70.8-31.4c-5.5-0.5-9.8,1.3-10.6,7.1c-0.8,6.5,3.4,9,9.2,9.8c1.6,0.2,3.1,0.2,4.8,0.4
		c42.5,4.9,70.4,30.9,76.8,71.4c0.9,5.6,0.5,11.5,1.2,17.2c0.6,4.6,3.2,7.7,8.2,7.6c4.9-0.1,7.5-3.2,8.1-7.8
		C608.4,452.1,608.3,449.8,608.4,447.9z M570.3,439.1c-0.5-28.9-21.1-50-48.9-50.6c-5.5-0.1-9.7,1.4-10.5,7.2
		c-0.8,6,3.3,8.4,8.5,9.4c1.9,0.4,3.8,0.6,5.7,0.8c12.6,1.3,21.2,8.1,25.7,19.8c1.9,4.7,2.3,9.9,3.1,14.9c1,5.6,3.4,10,9.8,9.3
		C570.1,449.2,570.6,444.2,570.3,439.1z"/>
</g>
<circle class="st1" cx="500.4" cy="500.6" r="481.1"/>
</svg>
