<?xml version="1.0" encoding="utf-8"?>
<!-- Generator: Adobe Illustrator 25.0.0, SVG Export Plug-In . SVG Version: 6.00 Build 0)  -->
<svg version="1.1" id="Слой_1" xmlns="http://www.w3.org/2000/svg" xmlns:xlink="http://www.w3.org/1999/xlink" x="0px" y="0px"
	 viewBox="0 0 1000 1000" style="enable-background:new 0 0 1000 1000;" xml:space="preserve">
<style type="text/css">
	.st0{fill:#FCA640;}
</style>
<g>
	<path class="st0" d="M499.4,1000C473.4,1000,525.4,1000,499.4,1000c-29.3,0-45.8-2.1-48.1-2.3c-83.7-8.8-161.2-35.3-230.6-83
		C100.4,831.9,28.8,718,5.6,573.8C3.9,563.1,0,527.3,0,501.1c0-27.3,0,26.2,0-1.1c0-25.2,2-43.7,2.2-45.7
		c3.9-36.9,11.1-73,22.7-108.2C123.4,45.9,471.2-88.4,746,67.7c204.3,116,302.4,362.3,227.7,584.2
		c-65,192.8-201.4,306.4-401.9,342.4C559.9,996.5,530.8,1000,499.4,1000z M553.4,423.3c-0.3-17.9,1.7-35.7,0.1-53.6
		c-1.6-17.7-9.7-26.5-27.4-28.5c-33.3-3.8-66.8-2.8-100.2-1.3c-10.5,0.5-20.4,3.8-27.9,12c-7.6,8.3-6.3,13.2,4.5,16.3
		c17.4,5,25.2,14.1,26.2,31.7c1.2,20.7,2.4,41.5,1.7,62.3c-0.4,13.3-2.2,26.5-6.1,39.3c-3,10.1-9.9,12.3-18.7,6.4
		c-6-4-10.9-9.1-15.3-14.9c-27.2-35.4-49.3-73.8-65.5-115.4c-6.3-16.2-17.7-24.1-34.9-24.1c-28.2-0.1-56.5-0.5-84.7-0.5
		c-15.8,0-22.3,9.9-15.9,24.5c34,76.9,72,151.6,123.9,218.3c54,69.4,123.3,105.4,212.5,98.7c19.1-1.4,25.6-7.9,27.9-26.9
		c1.6-13.2,4.1-26.3,7.7-39.1c4.5-15.9,16.3-19.9,29.6-9.8c5.4,4.1,10.4,8.9,15.1,13.7c13.8,14.2,27.2,28.8,41,43
		c11.2,11.5,25.2,19.1,41.2,19.8c31.1,1.3,62.3,3.1,93.5,0.8c28.2-2.1,36.8-20.5,21.3-44.3c-13.2-20.2-28.8-38.4-45.8-55.5
		c-13.3-13.3-26.9-26.4-40-39.9c-9.6-9.9-10.2-16.7-4.2-29c3.7-7.6,8.6-14.5,13.6-21.3c20.6-28.3,41.4-56.5,61.7-85.1
		c10-14.1,17.5-29.5,21.5-46.5c2.2-9.3-1.5-16-10.7-18.8c-3.7-1.1-7.6-2-11.5-2c-35.7-0.1-71.4-0.1-107.1,0
		c-10.7,0-17.5,5.7-21.4,15.4c-1.5,3.6-2.9,7.2-4.4,10.8c-17.3,43-39.8,82.9-71.4,117.3c-5.3,5.7-9.8,14.7-19.5,11.5
		c-9.6-3.3-9.1-13.3-10.4-21.4C550.1,466.1,553.5,444.7,553.4,423.3z"/>
</g>
</svg>
