<?xml version="1.0" encoding="utf-8"?>
<!-- Generator: Adobe Illustrator 25.0.0, SVG Export Plug-In . SVG Version: 6.00 Build 0)  -->
<svg version="1.1" id="Слой_1" xmlns="http://www.w3.org/2000/svg" xmlns:xlink="http://www.w3.org/1999/xlink" x="0px" y="0px"
	 viewBox="0 0 1000 1000" style="enable-background:new 0 0 1000 1000;" xml:space="preserve">
<style type="text/css">
	.st0{fill:#FCA640;}
</style>
<g>
	<path class="st0" d="M536.3,996.9h-74.7c-1.2,0-2.3-0.6-3.2-1.4c-1.1-0.9-2.7-0.5-4-0.6c-106-10.5-200.8-48.6-280-120
		C28.5,743.5-27,579.2,14.8,387.7C72.5,123.4,332.4-42.7,597.7,9.6c205.7,40.5,364.7,208,395.6,416.1c1.7,11.2,1,22.8,5.2,33.6
		c0.1,26.9,0.2,50.8,0.3,77.7c-3.8,9.2-3.2,19-4.5,28.5c-14.1,99.1-53.5,186.9-119.9,261.8C794,917.9,693.7,972.8,573.8,991.5
		c-12,1.9-24.3,1.3-35.9,5.2C537.4,996.8,536.8,996.9,536.3,996.9z M212.2,785.4c-1,3.8,2.4,7.3,6.2,6.4c0,0,0,0,0.1,0
		c47-12.3,93.9-24.4,140.8-37c6.5-1.8,11.5-0.9,17.4,2c54.5,27.3,112.2,37.4,172.6,29.5c168.5-22.1,284.8-181,255-347.7
		C774.9,274,617.4,165.4,454.4,197.2c-188,36.7-294.1,237.5-216.3,412.5c10.5,23.6,11.6,43.2,4.2,66.7
		C231.2,712.1,222.2,748.4,212.2,785.4z"/>
	<path class="st0" d="M297.3,718.9c-7,1.8-13.4-4.6-11.5-11.6c6-22.3,11.7-43.8,18-65.2c2.2-7.6,1.2-13.2-2.9-19.8
		C225.2,499.7,266,342.8,391.5,273c149.1-82.9,338.6,10.1,364,178.6c20.6,136.7-70.4,262-207.3,283.8
		c-58.7,9.3-114.1-2.3-165.3-32.6c-5.1-3-9.4-4-15.3-2.3C344.5,706.8,321.3,712.7,297.3,718.9z M588.6,633.6
		c5.2-0.3,9.5-0.1,13.6-0.9c33-6.4,60.5-25.8,59.8-63.7c-0.1-4.8-0.6-9.1-5.5-11.4c-20.7-9.9-41.3-19.9-62.1-29.6
		c-6.4-3-11.6-1.2-16,4.8c-6.7,9.1-14.2,17.6-21.2,26.6c-4.7,6-9.9,7.2-17,4.3c-43.7-17.5-77-46.9-101.2-87.1
		c-3.5-5.8-3.4-10.5,0.9-15.8c6.2-7.5,11.8-15.4,17.6-23.2c3.5-4.7,4.6-9.6,2.1-15.4c-8.2-19.3-16.1-38.8-24.3-58.2
		c-1.7-4.1-4-8.1-8.6-10.1c-10.3-4.5-32.2-1-40.4,6.9c-23.2,22.6-31.5,49.9-25.1,81.6c5.5,27.1,20.7,49.3,36.9,70.8
		c31.5,41.6,68,77.5,116.3,99.2C538.4,622.9,562.5,633.7,588.6,633.6z"/>
</g>
</svg>
