<!-- Generator: Adobe Illustrator 25.0.0, SVG Export Plug-In  -->
<svg version="1.1" xmlns="http://www.w3.org/2000/svg" xmlns:xlink="http://www.w3.org/1999/xlink" x="0px" y="0px" width="183.7px"
	 height="160.5px" viewBox="0 0 183.7 160.5" style="overflow:visible;enable-background:new 0 0 183.7 160.5;"
	 xml:space="preserve" shape-rendering="geometricPrecision">
<defs>
</defs>
<path d="M65.8,105.8c20.3-18.3,39.5-35.6,58.7-52.9c-0.2-0.3-0.4-0.6-0.6-1c-2,1.1-4.1,2.2-6,3.4C96.9,68.7,76,82.2,54.8,95.2
	c-2.9,1.8-7.5,2.3-10.8,1.4c-11.5-3.2-22.7-7.3-34-11.1c-5.2-1.8-9.7-4.6-10-10.7c-0.3-6.5,4.2-9.7,9.6-11.9
	C61.4,42.5,113.2,22.3,165,2c1.8-0.7,3.8-1.2,5.7-1.6c9.6-1.8,14.4,2.8,12.6,12.4c-4.1,21.7-8.5,43.4-12.7,65.1
	c-4.3,21.9-8.8,43.8-13.1,65.8c-3.3,16.9-13.3,21.6-27,11.6C108.9,139.4,87.8,122.7,65.8,105.8z M8.8,72.6c0.1,0.8,0.1,1.7,0.2,2.5
	c2.4,1,4.8,2.2,7.3,3.1c8.7,3,17.5,5.6,26.1,8.9c4.5,1.7,7.8,0.9,11.6-1.6c29.5-18.9,59.2-37.7,88.8-56.4c4.3-2.7,9.5-7.2,13.8-1.5
	c4.4,5.7-1.4,9.5-5.1,12.9c-22,19.9-44,39.7-66,59.5c-1.8,1.6-3.8,2.9-6.2,4.7c20.3,15.5,39.2,30.1,58.2,44.5
	c5.9,4.4,9.4,2.4,11-5.7c6.9-34.6,13.8-69.2,20.6-103.9c2-10.1,3.8-20.2,6.1-32.2C118.6,29.6,63.7,51.1,8.8,72.6z"/>
</svg>
